<mxfile host="65bd71144e">
    <diagram id="AG_i6435NJ-JOTt9KHhE" name="Page-1">
        <mxGraphModel dx="758" dy="724" grid="1" gridSize="10" guides="1" tooltips="1" connect="1" arrows="1" fold="1" page="1" pageScale="1" pageWidth="827" pageHeight="1169" math="0" shadow="0">
            <root>
                <mxCell id="0"/>
                <mxCell id="1" parent="0"/>
                <mxCell id="2" value="" style="shape=image;verticalLabelPosition=bottom;labelBackgroundColor=default;verticalAlign=top;aspect=fixed;imageAspect=0;image=data:image/png,iVBORw0KGgoAAAANSUhEUgAABLUAAAMlCAYAAACFBMH1AABYMUlEQVR4XuzdMYtk6Xkv8KU/gD6AuakS31TcT2CcGxQ70AdwoHiDC4oWg5UpubrB4mBZ8MgMGxivMGhhEbYEA2KTASEHg7ngRevAgcFg7LvPeN7R2b9OdXdVV/e8z3t+P3iZ7qpTbz11qrt5zn/ec+q9/wIAAACAZt7LGwAAAABgdkItAAAAANoRagEAAADQjlALAAAAgHaEWgAAAAC0I9QCAAAAoB2hFgAAAADtCLUAAAAAaEeoBQAAAEA7Qi0AAAAA2hFqAQAAANCOUAsAAACAdoRaAAAAALQj1AIAAACgHaEWAAAAAO0ItQAAAABoR6gFAAAAQDtCLQAAAADaEWoBAAAA0I5QCwAAAIB2hFoAAAAAtCPUAgAAAKAdoRYAAAAA7Qi1AAAAAGhHqAUAAABAO0ItAAAAANoRagEAAADQjlALAAAAgHaEWgAAAAC0I9QCAAAAoB2hFgAAAADtCLUAAAAAaEeoBQAAAEA7Qi0AAAAA2hFqAQAAANCOUAsAAACAdoRaAAAAALQj1AIAAACgHaEWAAAAAO1MH2q9BwAAAAApQ6TZZL0AAAAAINQCAAAAoJ8MkWaT9QIAAACAUAsAAACAfjJEmk3WCwAAAABCLQAAAAD6yRBpNlkvAAAAAAi1AAAAAOgnQ6TZZL0AAAAAINQCAAAAoJ8MkWaT9QIAAACAUAsAAACAfjJEmk3WCwAAAABCLQAAAAD6yRBpNlkvAAAAAAi1AAAAAOgnQ6TZZL0AAAAAINQCAAAAoJ8MkWaT9QIAAACAUAsAAACAfjJEmk3WCwAAAABCLQAAAAD6yRBpNlkvAAAAAAi1AAAAAOgnQ6TZZL0AAAAAINQCAAAAoJ8MkWaT9QIAAACAUAsAAACAfjJEmk3WCwAAAABCLQAAAAD6yRBpNlkvAAAAAAi1AAAAAOgnQ6TZZL0AAAAAINQCAAAAoJ8MkWaT9QIAAACAUAsAAACAfjJEmk3WCwAAAABCLQAAAAD6yRBpNlkvAAAAAAi1AAAAAOgnQ6TZZL0AAAAAINQCAAAAoJ8MkWaT9QIAAACAUAsAAACAfjJEmk3WCwAAAABCLQAAAAD6yRBpNlkvAAAAAAi1AAAAAOgnQ6TZZL0AAAAAINQCAAAAoJ8MkWaT9QIAAACAUAsAAACAfjJEmk3WCwAAAABCLQAAAAD6yRBpNlkvAAAAAAi1AAAAAOgnQ6TZZL0AAAAAINQCAAAAoJ8MkWaT9QIAAACAUAsAAACAfjJEmk3WCwAAAABCLQAAAAD6yRBpNlkvAAAAAAi1AAAAAOgnQ6TZZL0AAAAAINQCAAAAoJ8MkWaT9QIAAACAUAsAAACAfjJEmk3WCwAAAABCLQAAAAD6yRBpNlkvAAAAAAi1AAAAAOgnQ6TZZL0AAAAAINQCAAAAoJ8MkWaT9QIAAACAUAsAAACAfjJEmk3WCwAAAABCLQAAAAD6yRBpNlkvAAAAAAi1AAAAAOgnQ6TZZL0AAAAAINQCAAAAoJ8MkWaT9QIAAACAUAsAAACAfjJEmk3WCwAAAABCLQAAAAD6yRBpNlkvAAAAAAi1AAAAAOgnQ6TZZL0AAAAAINQCAAAAoJ8MkWaT9QIAAACAUAsAAACAfjJEmk3WCwAAAABCLQAAAAD6yRBpNlkvAAAAAAi1AAAAAOgnQ6TZZL0AAAAAINQCAAAAoJ8MkWaT9QIAAACAUAsAAACAfjJEmk3WCwAAAABCLQAAAAD6yRBpNlkvAAAAAAi1AAAAAOgnQ6TZZL0AAAAAINQCAAAAoJ8MkWaT9QIAAACAUAsAAACAfjJEmk3WCwAAAABCLQAAAAD6yRBpNlkvAAAAAAi1AAAAAOgnQ6TZZL0AAAAAINQCAAAAoJ8MkWaT9QIAAACAUAsAAACAfjJEmk3WCwAAAABCLQAAAAD6yRBpNlkvAAAAAAi1AAAAAOgnQ6TZZL0AAAAAINQCAAAAoJ8MkWaT9QIAAACAUAsAAACAfjJEmk3WCwAAAABCLQAAAAD6yRBpNlkvAAAAAAi1AAAAAOgnQ6TZZL0AAAAAINQCAAAAoJ8MkWaT9QIAAACAUAsAAACAfjJEmk3WCwAAAABCLQAAAAD6yRBpNlkvAAAAAAi1AAAAAOgnQ6TZZL0AAAAAINQCAAAAoJ8MkWaT9QIAAACAUAsAAACAfjJEmk3WCwAAAABCLQAAAAD6yRBpNlkvAAAAAAi1AAAAAOgnQ6TZZL0AAAAAINQCAAAAoJ8MkWaT9QIAAACAUAsAAACAfjJEmk3WCwAAAABCLQAAAAD6yRBpNlkvAAAAAAi1AAAAAOgnQ6TZZL0AAAAAINQCAAAAoJ8MkWaT9QIAAACAUAsAAACAfjJEmk3WCwAAAABCLQAAAAD6yRBpNlkvAAAAAAi1AAAAAOgnQ6TZZL0AAAAAINQCAAAAoJ8MkWaT9QIAAACAUAsAAACAfjJEmk3WCwAAAABCLQAAAAD6yRBpNlkvAAAAAAi1AAAAAOgnQ6TZZL0AAAAAINQCAAAAoJ8MkWaT9QIAAACAUAsAAACAfjJEmk3WCwAAAABCLQAAAAD6yRBpNlkvAAAAAAi1AAAAAOgnQ6TZZL0AAAAAINQCAAAAoJ8MkWaT9QIAAACAUAsAAACAfjJEmk3WCwAAAABCLQAAAAD6yRBpNlkvAAAAAAi1AAAAAOgnQ6TZZL0AAAAAINQCAAAAoJ8MkWaT9QIAAACAUAsAAACAfjJEmk3WCwAAAABCLQAAAAD6yRBpNlkvAAAAAAi1AAAAAOgnQ6TZZL0AAAAAINQCAAAAoJ8MkWaT9QIAAACAUAsAAACAfjJEmk3WCwAAAABCLQAAAAD6yRBpNlkvAAAAAAi1AAAAAOgnQ6TZZL0AAAAAINQCAAAAoJ8MkWaT9QIAAACAUAsAAACAfjJEmk3WCwAAAABCLQAAAAD6yRBpNlkvAAAAAAi1AAAAAOgnQ6TZZL0AAAAAINQCAAAAoJ8MkWaT9QIAAACAUAsAAACAfjJEmk3WCwAAAABCLQAAAAD6yRBpNlkvAAAAAAi1AAAAAOgnQ6TZZL0AAAAAINQCAAAAoJ8MkWaT9QIAAACAUAsAAACAfjJEmk3WCwAAAABCLQAAAAD6yRBpNlkvAAAAAAi1AAAAAOgnQ6TZZL0AAAAAINQCAAAAoJ8MkWaT9QIAAACAUAsAAACAfjJEmk3WCwAAAABCLQAAAAD6yRBpNlkvAAAAAAi1AAAAAOgnQ6TZZL0AAAAAINQCAAAAoJ8MkWaT9QIAAACAUAsAAACAfjJEmk3WCwAAAABCLQAAAAD6yRBpNlkvAAAAAAi1AAAAAOgnQ6TZZL0AAAAAINQCAAAAoJ8MkWaT9QIAAACAUAsAAACAfjJEmk3WCwAAAABCLQAAAAD6yRBpNlkvAAAAAAi1AAAAAOgnQ6TZZL0AAAAAINQCAAAAoJ8MkWaT9QIAAACAUAsAAACAfjJEmk3WCwAAAABCLQAAAAD6yRBpNlkvAAAAAAi1AAAAAOgnQ6TZZL0AAAAAINQCAAAAoJ8MkWaT9QIAAACAUAsAAACAfjJEmk3WCwAAAABCLQAAAAD6yRBpNlkvAAAAAAi1AAAAAOgnQ6TZZL0AAAAAINQCAAAAoJ8MkWaT9QIAAACAUAsAAACAfjJEmk3WCwAAAABCLQAAAAD6yRBpNlkvAAAAAAi1AAAAAOgnQ6TZZL0AAAAAINQCAAAAoJ8MkWaT9QIAAACAUAsAAACAfjJEmk3WCwAAAABCLQAAAAD6yRBpNlkvAAAAAAi1AAAAAOgnQ6TZZL0AAAAAINQCAAAAoJ8MkWaT9QIAAACAUAsAAACAfjJEmk3WCwAAAABCLQAAAAD6yRBpNlkvAAAAAAi1AAAAAOgnQ6TZZL0AAAAAINQCAAAAoJ8MkWaT9QIAAACAUAsAAACAfjJEmk3WCwAAAABCLQAAAAD6yRBpNlkvAAAAAAi1AAAAAOgnQ6TZZL0AAAAAINQCAJjUl19++e0XL158/x/+4R/+t2EYhmEYxl3j5cuX3/3qq6++lT3FsjJEmk3WCwCwulevXn3n+fPnv/zLv/zL/zIMwzAMwzh3/M3f/M1PK+DKHmM5GSLNJusFAFjZF1988b2PP/74t9mcGoZhGIZhnDuqr8heYykZIs0m6wUAWFX9j2o2ozXqf1sNwzAMwzBuG8+ePft19hD1H2W1Ajx7jmVkiDSbrBcAYFXVkG4b0c8///wvDnVdDADgQcb1OLf9RF3SILdbRoZIs8l6AQBWVOHVtgGthjS3AQC4j/qPsW1fUWFXbrOEDJFmk/UCAKwoTz1ctvkEAB7dYf6zLEOk2WS9AAArqo/hHo1nXRMj7wcAOMf2sga1civvX0KGSLPJegEAVrQNtaoJzfsBAM6xPQVx2d4iQ6TZZL0AACsSagEA13SI3iJDpNlkvQAAKzpE4wkAPJlD9BYZIs0m6wUAWNEhGk/embpg8BdffPG9+tmq01Ee+kEE5ptrvqHmqflq3roodD1PbnOJ+iCLn/70p39V4ze/+c0f5f2XqNqqxqq1/v5dax+8evXqOz/72c/+b9Va+zjvfwrXfh+ONl95jDnLY8z7GHOWa8x7iN4iQ6TZZL0AACs6ROPJO1EH+B9//PFvx8/X9uesAoDc/i7mm2u+Uo+rECfnrOep57vkYLhUKFQfXJHz1m2XBkZVS9WUc9ao13BpuFVh2/Pnz3+Zc9Y+qL+vuf1juPb7cLT5ymPMWR5j3seYs1xz3kP0FhkizSbrBQBY0SEaT55cBQ95YLQd5/6smW+u+YZTIdEYlwRQdeCc82xHHWCfc3A91IqTnGs76rXkY+5jL3zbjmutMLvNtd+Ho81XHmPO8hjzPsac5ZrzHqK3yBBpNlkvAMCKDtF48uTqZ2l7MPTZZ5/93gHSOStjzDfXfGUvfMp5K/DJx90lw6e//du/fT22t9U2+bi7ZPiUtdY4NyyrwGr7+L/+67/+vVorKMjHXdO134ejzVceY87yGPM+xpzl2vMeorfIEGk2WS8AwIoO0XjypCoc2R4I/fM///Pr/vo///M/v3GAVNdsycfuMd9c8w0ZPv3Hf/zH63n/5V/+5RvznrtSaRs+/eIXv3g9Z6mvx+3nHFyXDJ+qxvLv//7v36j13NMFtytbKsyqfVr+8R//8RvznhuWnePa78PR5iuPMWd5jHkfY85y7XkP0Vu83kMTy3oBAFZ0iMaTJ5Wnuv3bv/3b2x57+z//9/15M99c8w3ba+9UoDPUwfD2+c5ZVZUBXIVDQwZF56wsO3XAXmp11bi9XlM+9janArh//dd//Uat9w0CLnHt9+Fo85XHmLM8xryPMWe59ryH6C3e7qVJZb0AACs6ROPJk6pVKdsLkldwUgf5//RP//SNg6P7Xp/FfHPNN9QnE24f//X3r+fdrqiqcU74VLYH1xU41UqRGg8JnzIs+9WvfvW61qo5XsN387G32f79rFH7tObdhoXnrio717Xfh6PNVx5jzvIY8z7GnOXa8x6it8gQaTZZLwDAig7RePLk7rrgcIUs+ZjbmG+u+Ya8TlWOS64nlacK7o1LVj7dtQ8uCZ8yLNsb913Z8hDXfh+ONl95jDnLY8z7GHOWa857iN4iQ6TZZL0AACs6ROPJk7vrYP/caxeZb675hjytL8erV6++k4+5j9sOrp8/f/7L3P4+7grLzl2pNtwWll36SY3nuvb7cLT5ymPMWR5j3seYs1xz3kP0FhkizSbrBQBY0SEaT96JClLq52sbUFQAcMkqm2K+ueYb6kB3G+xUkFMXnb/vaUp7KgiqkKkCrDFvfX1p8DRUTVXbOB2z/q3azzlY31Onbm1Pm6x9XAHBUwRaw7Xfh6PNVx5jzvIY8z7GnOVa8x6it8gQaTZZLwDAig7RePLOVXByzQN88z3MtecrNd9DA7I9dZD90NBpz2Psgzrwf4xaz3Ht9+Fo85XHmLM8xryPMWd56LyH6C0yRJpN1gsAsKJDNJ4AwJM5RG+RIdJssl4AgBUdovEEAJ7MIXqLDJFmk/UCAKzoEI0nAPBkDtFbZIg0m6wXAGBFh2g8AYAnc4jeIkOk2WS9AAArOkTjCQA8mUP0FhkizSbrBQBY0SEaTwDgyRyit8gQaTZZLwDAig7ReAIAT+YQvUWGSLPJegEAVnSIxhMAeDKH6C0yRJpN1gsAsKJDNJ4AwJM5RG+RIdJssl4AgBUdovEEAJ7MIXqLDJFmk/UCAKzoEI0nAPBkDtFbZIg0m6wXAGBFh2g8AYAnc4jeIkOk2WS9AAArOkTjCQA8mUP0FhkizSbrBQBY0SEaTwDgyRyit8gQaTZZLwDAig7ReAIAT+YQvUWGSLPJegEAVnSIxhMAeDKH6C0yRJpN1gsAsKJDNJ4AwJM5RG+RIdJssl4AgBUdovEEAJ7MIXqLDJFmk/UCAKzoEI0nAPBkDtFbZIg0m6wXAGBFh2g8AYAnc4jeIkOk2WS9AAArOkTjCQA8mUP0FhkizSbrBQBY0SEaTwDgyRyit8gQaTZZLwDAig7ReAIAT+YQvUWGSLPJegEAVnSIxhMAeDKH6C0yRJpN1gsAsKJDNJ4AwJM5RG+RIdJssl4AgBUdovEEAJ7MIXqLDJFmk/UCAKzoEI0nAPBkDtFbZIg0m6wXAGBFh2g8AYAnc4jeIkOk2WS9AAArOkTjCQA8mUP0FhkizSbrBQBY0SEaTwDgyRyit8gQaTZZLwDAig7ReAIAT+YQvUWGSLPJegEAVnSIxhMAeDKH6C0yRJpN1gsAsKJDNJ4s7+XLl3+QtwHwbhyit8gQaTZZLwDAig7ReDKVFy9e/OGPfvSjv8rbL/HZZ5/98Y9//OP/8/7779+7f//JT37yZ+PrCsM+/fTTP9nef6Gbn//85/+r5q7Xl3deKua6+eSTT/60/t3c9mBVd428/Rq2+/oc9b7Ue1uPr9f80PpqP9b7/Oa9vsb+u9m+N2P+7QaPofbDtZ8nX8e1f4aHej+vuP/feuDfkpttIF6vu+rcbnANtU+vHbw/5u/tNRyit8gQaTZZLwDAig7ReDKVOhA7J4RKdXBYB4kffPDBr2qeCrXOORDdPnfV8sCD4tcHwj/4wQ/+X807RtX20PBhvL4PP/zwz+s1//CHP/y7+r6e65ID5AqHxv7a1lb78tLw6S6XvM9VWz2uXm+9NzXG637v/EDkJt+bsQ8uDQTqcWPO2m+j3vG+5/bXVM83nufS+rfq92a8R/Vztt1H9X1uf1/xe3UzgucHvI9vf+9zbN+HfMxt6rWP97EeW7/H43fu0r8J9TNbc3z00Ufvb39Ha85rvF9bD/i9fRvAV53175vazn5PbnOI3iJDpNlkvQAAKzpE48lULg21tquy6sBxBB653V22z32NUKtq2YZY9W/N+ZCAY+yjmqsOPOvrCqVGgFa35WNuUwfY9biabwQBI7R4wMHxa2POvXHJ+1z7bS+krH16bp21ff3MfP3lTdU5ApW6/dL3vfZ9zZOhyAi3HmOV07Ddt/Xc9RoespKt5hk/SzVf7av6Wal5Lw2fyvb3aoSAYzXbCKHyMXepx4/f/fwZq3/PDbXqtY73cfy+1msf4d65wXG9DzVfvd4Kt8ZrrvsuDbXq8ePvXI6xH/Ixd6nXt/37OeZ6yN+rPYfoLTJEmk3WCwCwokM0nkzl0lBrHNCOg8NLg4lrhlp14HvqAHgcMOft91EH6G8OMitUuNkeFNfB+LmhVsz3NmjYBlLxkHsbAUgedNc4932+bX9WaFBhQd5+m6phs+LopvbBOIXz0ve95nsTlL1+L8Z+3QaH8ZCr2b5X9Xz1czBW8F0SqI33v77eBrPjtbx3pVBru69rn13681avb6zgGz8j5/6MDdufje3fkhGenRtC1ePHz0UZ4eel85Xx2LGiajvq+c7djyMU3/n9ev27cc2f3UP0FhkizSbrBQBY0SEaT96JcaB9auT2dxkHiXXwVV/XAeklwcQ4wKwxgpLx/bmhwG0B3SUHncMId7bBQP27XbX1zUfc6XUwFqHQ69PCap9eWmcZB957++7UvrlNva9V51iBVKPqG6tgcvvbbE+5rJ+bUef4Wcrt7+n1KY1jdUvVOsab13tREHQfI9DI2792UwHqTlhxqxFu1v4ZIeRYyXPiee6l5h1zjJ/Zun2c7vjQ8GS8f+P9zfvvo2qrx4799ubn92asssrt7zJq2QbZtR/Gz8W5P7tDvTfbsGy45WfhpKptG25vPSRs3HOI3iJDpNlkvQAAKzpE48k7MQKJUyO3v686IB4H4JuVMb93kHZKPe7UODckGweteXupcOAhB4l1AJrXNdquLjnXCIfy9nqeC0Kyb6hAYC9Q2Xu+u4wVSNv3uL6+sMabmmuET2OOqushP4Oxz25GEHfpyrz7uiTIuIfXp2aO4K9ey1jNlhveV72HVecInsfv1Qi5cvtLjODs0lDra69PQ439+TqwvDB0ez3fzmNf/ww+4Oft9TWw8sZL/46OFWVVa/28jvfpISvz9hyit8gQaTZZLwDAig7RePLOvDnIf3ugVAdheyt6LlHzjIOxS1ZWXEO9ngzGtuMRAojXgcFegHSpa8+39YDAYc83PnEQ3jsR+HDaWKlY4dYIjOv7aweyh+gtMkSaTdYLALCiQzSevBPjotDbg84RQj30ACpWBr1eafKNDW6xDZrGKUfj6wtWkbw+qD41HiMs2lld8iAPna/2W77uMa4ZatV8566kA96NQ/QWGSLNJusFAFjRIRpP3onx8fZx8+vTe/auEXMf4/o8Y9Q85wRaZRu0VEgyQreZQpNx+tbeqBrPDaGuPd/WOE3w1Mjtb3NbnZdeQw1W8yZ8v9qpgo/hEL1FhkizyXoBAFZ0iMaTdyJXaQ0VQl1yuuC4yPQIosYn+tVt56yIumaoNVYjnRqXhkVj3qonxyUX8b72fFt1/aVTF58+N9QaF50fn3C3HeO2fAwcyQj2L/2PgT0XrFC90yF6iwyRZpP1AgCs6BCNJ+9EHXjtnWY4PnEwb79LBRp7B191cLd3+ynXDLX2VDBT8zz0NMvaR3th01i5lLff5drzbdUqqr3Xem6oVcb1fvL2a70/0Nn4Pdj7fbvUY/xeHaK3yBBpNlkvAMCKDtF48k6MFTbvbVbw1IqqWtVz7imD5VRIVIHMzmmOJz1iqPX608/GKopzVo/tGafi5e217y7Zf9ee7xG93o+5/y685hks54F/p37Ptecrh+gtMkSaTdYLALCiQzSevBMVQlQQNU57q5VC9fWpU9XuUo/dO51xnJaYt5+yPQ2v6huntT3k9Laqq15Xjb3gDeBaLv07dcq15yuH6C0yRJpN1gsAsKJDNJ68M7Xapk43rNPTapXNm08bvMht11o6J9Qap9vtjQtWLN3Uqqx6/g4Xbwb6u3YIde35yiF6iwyRZpP1AgCs6BCNJ+9MhFg3FXBdGmxlAJUjt79EnvJ2l3EB9lqhlWFbjQtCMoBbXTOEqv9wGH+/8r6HOERvkSHSbLJeAIAVff7553+xfOPJO1EB1lhBVWHROBWxxrXCnjcB2VmroyqIqtVdNTYB282pC5Tf4abmOzXODckA7nLpfwzsGcH8tf4mD0KtCWS9AAArqmZzNJ4VcOX9cKkKsUZIVCup3nzi4euLgJ9zYfehDr5qzjff3tTcdTBWt+1da+uUelw9pk4brH/rYK7qOXUh+nNUiCXQAjp5jL9VQq0JZL0AAKv56quvvjWazhovXrz4fm4Dl6rAaRwsVZA0ThGs2y5YEfXeuBB7fV1B1Aih6vSZc+arukZ4dY3rYdVcNU99Xa9xrEarunJbgDPU36RTf5derxLNG2ch1JpA1gsAsJrtqYc1vvzyy2/nNnCpCnbqFMQKserrccpMHYidE0INNcc4iNuGZDXvm1Vg97K9qHzNcUktGzc133ZFWo3xmuv+2B7gXurvXZwm/VoF6RXqX3AtwScLyYRaE8h6AQBWUeFVrcraBlrPnz//ZW4HDzFO86uxOd3wpg7SLjgY+0aotT1VsA74zgmmrhlqjevRjLq2F62v13nt69QAh/L201XrPwjq+1pVeunq0kcIyU4Sak0g6wUAehtBTjVaRx21MuvZs2e/3oZZNT7++OPfvnr16ju5z+AharVSnYJXY5yGWAdPewdV9zFOP6zHb66t9frTu94c4N3LWFlVY8w1vj9nnrK5Vthr9TrHa625xmmJAJcaodP4D4IHrKi6akh2m+o5hFrvWNYLAPRUYU2tQsogx/jd+OKLL76X+w0eyW2nv9yqDuRGsDUO6rbX1srtTxmrqfbGuSurxkqtvQstn1sXwJ76O7MNtS75T4GtK4ZkJwm1JpD1AgD9VFhTq5AyxDH+e1Sj+fXB+Hdzv0EX25VRD1WB1iWn39RBYa3yehNg3YyL129XkwFc4O1Kqjd/m/L7i1w7JNsj1JpA1gsA9FJhTYY4o7k68qhTEGvf1Ccf5j6Do6lArA4S6+Du0gPFOiAcjx+jTvGxSgt4iBE+5UqqB1wDK0Ox/P5qhFoTyHoBgF6qidqGWRXmCHKAUquyanVVHczVweGb62JddFrkUAHZm4PPB80DUP7+7//+f/ziF7/4n3l7qb835wbnjxCSnSTUmkDWCwD0UeHVNtCqC8TnNsAxjdNuaoVCrbKqA7mHfAIiwGOo8Omaf5venKq9G7pfEpLdRqg1gawXAOgjTz2sTz7MbYBjqmvICLWA2V071Hrjpj75MK+jVYHWm09EvAqh1gSyXgCgj20z9ezZs1/n/cCx1QHc+Gj7a51+CHBN4xNft5/Quh15GuF91Hzj2n91Gnat0Bp/C8/99NfbCLUmkPUCAH0copkCHuwaF4q/tu0qU8Mweo/8/T7HuAZWrdbaG+eGUDXfCK9qbEP9XLn1UIfowzJEmk3WCwD0cYhmCriqOsgTahmGcc2Rv9/nuPbphzlffV2h/nabazlEH5Yh0myyXgCgj0M0UwDAsjKEeqicr76+5BTG+zhEH5Yh0myyXgCgj0M0UwDAsur06HNPMbxNBVh1qmH9O76ui8OP7998OuJVHKIPyxBpNlkvANDHIZopAJhMBSO1Aughp/LWhctr5O08zLim1qnxkPcsHaIPyxBpNlkvANDHIZopgAOpa/+MC2RX4FEH4HsXt95eSHs79la81G31aXA135v7334CZn2fc4wxtsnbc+RzjjlPhQd7j7lE1lH7bnuaWb3e266lNGoc9dZqns3dN2PezW1vjU/S23tv7mtcxPzUfmJ+X3zxxfdGH1Yj719ChkizyXoBgD6EWgBrqRClgo76d3xa5V7wMQKXsc1ewFQBT4VZdX+dgjXm2q4O2oZadd/2U+jGNuP7vefL5yzjOWvb9zYB2rD3ei6R9ebrG7fl40qFUaOOGvV11T3uH4HT3uM/++yzP77Waxg1XvOUOJ7Ob37zmz8Sar1jWS8A0IdQC2AtEcTcVLgyAqm9i13fFtyMEGqETvX4EUpVMJPb1+3bMGvPbc9XRlg0VjJl4FWuFQjt1Tuet0KiWqX1ptbfC9bGKWpVX9Uy9svYx2Oevdda4dc2AHuIqnPsr7yP+b169eo721CrQq7cpr0MkWaT9QIAfQi1ANayFxqNVUMffvjhn29vL3vbD3uhT4Uop1YF7W2fbnu+UjWOIGmc8pjb1P2PFWptT+kbK7BGUDVONayv61TDcV/dXvNUePhmH9/UfSNM3M4/7tt7XZeq/VTPlbfTw7Nnz349erHPP//8L/L+9jJEmk3WCwD0IdQCWMteaDRW82SAU/a2L9vT6/K+U049x9ap5xtqxdMIfMZKqQzRzq3rlL16R6hWzzlWY9WqtLE/3pwS+TrgGq9jhFoVdNX99W8FTdtthjHnqfrreevxdf+b1XBjldjN3kq7MlaF5e308LOf/ez/jl6sAq68v70MkWaT9QIAfQi1ANZyKjSqsGVvNc+p7fMi5NtrZ9XYu8D5XkiUTj1fGc85VkONICkuwH7VUGuETxWgjWt5jVBthIF1/wiq6vsKl2qbbcBVX4/ta9R8e6FWrv5Ko6bxXDXqfRvX/srty11zMrevf26+uz0F8csvv/x2btNahkizyXoBgD6EWgBr2QuNHrJSa5yyOEKt267Pdeo5tk49XxkrjkYgNMKavP5U3XatUGt7ofh6rbE66u1zVW11/wjBxmNqm214NV5f7b+9UOu263SVCAtvqp6a503Qt/uYsforwz96+Oqrr7718ccf/3b0Y7VyK7dpLUOk2WS9AEAfQi2AteyFRpdeU2tvddcIUK4dao3grUKjERjVGCuWtmHPCJq2j7/EfeutMS6YX6HUqKu+rm224dW4xlbePjzGqqrt9b3yPnrYnoJYAVcFXblNWxkizSbrBQD6EGoBrCVDo4d8+uFYObX9pMPHCrVGMJOfqpgrxspThlrjNMPatoK3qq++3tawF16duv0xVlVtL66f99FDnXK4PQVxqQvGZ4g0m6wXAOhDqAWwlhEabVc51b8ZomxXII3ta4zrWZUKYMYcdd8IuWqMlVPba23V7dvT+X73bL9zKtSq5xnXqEp533hN43nGGCun7mu8rrx9a+cUyNefXlhjBHt74dWp28eKtL1Vc5eq0DJP0aSf6sO2wdarV6++k9u0lCHSbLJeAKAPoRbAWsbpcSOEypVPQwZCY2xDraFuq9Ck5strO+UF5LdjM8Vbo77tbRX01G2nVl+N5xhBWj7PGOeGWvd5TAVXWVsFUnXb+FTGUd/vHvXfTt2+d1rnA7wO2faeh15ytdYyfVmGSLPJegGAPoRaAPC0xgquvQDxXOPC83ung9LPti+r8cUXX3wvt2knQ6TZZL0AQB9CLQB4erVS680plRdfB2tcn+uapzLybtUF4p89e/br0ZstcdH4DJFmk/UCAH0ItQDg6V0jkLpGMMZ8Xr58+d3taq32F43PEGk2WS8A0IdQCwBgLktdND5DpNlkvQBAH0ItAIC5LHXR+AyRZpP1AgB9CLUAAOazzEXjM0SaTdYLAPQh1AIAmM8yF43PEGk2WS8A0IdQCwBgTktcND5DpNlkvQBAH0ItAIB5tb9ofIZIs8l6AYA+hFoAAPPKi8Y/f/78l7nN1DJEmk3WCwD0IdQCAJhbXjT+xYsX389tppUh0myyXgCgD6EWAMD82l40PkOk2WS9AEAfQi2Apd38/Oc//1/b8eLFiz/MjR4i56+R24Tfq6nGy5cv/yA3vNDvzX/Fud+r/ffZZ5/98U9+8pM/2xuffPLJn77ZBzf5WHiI3/zmN3+0Xa3V5qLxGSLNJusFAPoQagGsq8KV999//7+240c/+tFf5XYPkfPXyG229mqq8YMf/OD/vXeFIGhv/gqbcrtzfPrpp3/y4x//+P9UjTn3beOHP/zh33300UfvXzNU49h++tOf/lW71VoZIs0m6wUA+hBqAaxrL+CZNdSqUQFQbn+JnPfCUOumwqwPPvjgVznfJePDDz/8c+EWD1WffLhdrVV9XG4znQyRZpP1AgB9CLUA1rUXIM0catV4c+reg+Sc54ZadYphrbLKea4xzq0FUvVr29Vaef90MkSaTdYLAPQh1AJY116AdOVQ6ybnr5Ebbe3VtB0VJuVjzpVznhMk1fWy7jrNsO6v/Virr7bX06rb7hOG1ePeu8KplhxTXlvr5cuX381tppIh0myyXgCgD6EWwLr2AqRrhlp789fI7bZOPWY7zgmh9lw631211XW17rOSrE4zrFMXbwvHrvk+cDzPnz//5ejfpr9gfIZIs8l6AYA+hFoA69oLaa4ZpuzNXyO32zr1mO2oMOgh15/K+e4Zat2cCqHq9lrBlQ+4S72G2t8535l1we+pIGv0bxVw5f1TyRBpNlkvANCHUAtgXXsB0jVDrZLz18httvZqqnAnb3tInTnXfcKjU+FT3f6QgK3svb4x7rPyC1Kdcrg9BfHLL7/8dm4zjQyRZpP1AgB9CLUA1rUXID0kLNqT89fIbbb2avr65pu9Txm8ZHVUyXnuCrX2aqpRpxvmtpc69RzXfj84hq+++upb21CrrrOV20wjQ6TZZL0AQB9CLYB17QUp1w5Rcv4auc3WXk2nbq/T/t674ILqOc9dodapVVoPXaGVnup5OIb65MPRw7148eL7ef80MkSaTdYLAPQh1AJY115QNGuoVWplVN730Ucfvb99/H3kHLeFWhUo5fY13nxC4VXtvfbHei7WV33b6OGqn8v7p5Eh0myyXgCgD6EWwLr2QpTbAp5L5Pw1cputvZo2d+9erP3c607l4297zZ988smf5vY1Hmv11F5wV6de5nZwl22oNfUnIGaINJusFwDoQ6gFsK69AOm2gOcSOX+N3GZrr6bt/Xsh0w9/+MO/225zl3z8ba95L2R6zJVTp1aGPVaIxrq2n4A4dQ+XIdJssl4AoA+hFsC69gKk2wKeS+T8NXKbrb2acpu9a0+dU/c5j73mBerva+85P/300z/J7eA2bXq4DJFmk/UCAH20aYgAONtegHRbwHOJnL9GbrO1V1Nu8+LFiz/Mbeq0xPuuZsrH3vaac9sa932eS+2tDrutRtjTpofLEGk2WS8A0EebhgiAs+0FSNcOT+rUwHyO3GZrr6bcplSdud19L3Kfjzv1mvdqOVXPNe29tsc85ZE1tenhMkSaTdYLAPTRpiEC4Gx7oc2pgOdSe6cK5jZbezXlNm/c7J2md59TA/Mxp17zXi33Dc4eYu+6YU/xvKylTQ+XIdJssl4AoI82DREAZ9sLbU4FPJd6rJVaZW/bOg3x67tuctutfMyp17w3/1OES+/qeVlLmx4uQ6TZZL0AQB9tGiIAzrYXnpwKeC6V89fIbbb2aspttvauP/XRRx+9n9tt5fanXvNeLU8RLr2r52UtbXq4DJFmk/UCAH20aYgAONteeHIq4LlUzl8jt9naqym3CTe1OisfUxeTzw2H3PbUa96r5SnCpXf1vKylTQ+XIdJssl4AoI82DREAZ9sLT04FPJfK+WvkNlt7NeU2ae8aVHXaY2435LanXvNeLbfNey17r0eoxbna9HAZIs0m6wUA+mjTEAFwtr3Q5lTAc6mcv0Zus7VXU26zZ++C9BUO5XYltzv1mmu1V25733oeYu/TD0/VCKe06eEyRJpN1gsA9NGmIQLgbHsBUl2jKre71CWh0F5Nuc2eveeq0xJfvnz5B7ltbndbYJTb1rjt1MZr2LtO2G01wp42PVyGSLPJegGAPto0RACcbS9AuubpdZ9++umf5PwffPDBr3K7rb2acptT9lY47YV0uc1tgVHVm9vX68rtrmnvOWu/5HZwmzY9XIZIs8l6AYA+2jREAJxtL0Cqkdtdai9kuuvaUHs15Ta3uNkLhD777LM/3m6U998Wan344Yd/ntvXbbndtdTKsny+Gl/fdZPbwm3a9HAZIs0m6wUA+mjTEAFwtlMByrVOr9u7ztUjh1q7j3+zOuxtKJT33xZq7a02e1PTo4RMe0HgNVfPcRxtergMkWaT9QIAfbRpiAC4SAYod4U893UqMLtr7r1QKre5y941qT766KP3x/153201Xfo6LrW30uyxnou1tenhMkSaTdYLAPTRpiEC4CK1CihDlLrA+nsPXIm0d9pejbuuDXWNUOtrN/Uacp6xAi1vvys02nstpy5C/xB7q7Su8V5wTG16uAyRZpP1AgB9tGmIALjIXpBS4yEXQz+1uqlGbpuuFGq998knn/xpzjNO48vVUHeFWnufrLiZ7yqB06nneMzrd7G2Nj1chkizyXoBgD7aNEQAXORUAFXBz4UrkW72Tv+7b0BzrVCr7F3Tq8KuvP2uUKucek21nx56DbK9AK7GY6wG4zja9HAZIs0m6wUA+mjTEAFwsdtClbtOF9yqAGbvdMYx7hPQXDPU2lv9VK/p3JVab+ye0jhG7cN8wD2cDABr5Kc2wjna9HAZIs0m6wUA+mjTEAHwILl6aSewufU0uzpd8bbQ557B0VVDrXLq9Mpr1bYdFVDdM4i6qf2V4dp2bC9sD5do08NliDSbrBcA6KNNQwTAg9QqqttCqRHaVAC0HXVK4V2Pu89ph8NecJTbnOnmtvCoxn1DrVKh1V2vt+6vkLCCqdxXt4WHYwi0uIY2PVyGSLPJegGAPto0RAA82F2rrS4ZFYTl89zmEUKt3Tm345xQq9RpjdfeT2M85AL9sNWmh8sQaTZZLwDQR5uGCICrqMDmtuti3XdU6HNJQLMXQOU2l7jt2lXnhlpv3NTjrhVu1Squ+1xzDO6rTQ+XIdJssl4AoI82DREAV1Wn2d3nVLkcdarffa7BdcpjhVrv3XKh9wtDreF1uHVJEFj7SpjFY2nTw2WINJusFwDoo01DBMBjuamAq4KbWu1UQVeOuq9WZV0pnLmpYGs7coNL1Sq0nLvGleoury8AX/ujrouV+2lck6xCv6olHwzX1KaHyxBpNlkvANBHm4YIAIC32vRwGSLNJusFAPpo0xABAPBWmx4uQ6TZZL0AQB9tGiIAAN5q08NliDSbrBcA6KNNQwQAwFttergMkWaT9QIAfbRpiAAAeKtND5ch0myyXgCgjzYNEQAAb7Xp4TJEmk3WCwD00aYhAgDgrTY9XIZIs8l6AYA+2jREAAC81aaHyxBpNlkvANBHm4YIAIC32vRwGSLNJusFAPpo0xABAPBWmx4uQ6TZZL0AQB9tGiIAAN5q08NliDSbrBcA6KNNQwQAwFttergMkWaT9QIAfbRpiAAAeKtND5ch0myyXgCgjzYNEQAAb7Xp4TJEmk3WCwD00aYhAgDgrTY9XIZIs8l6AYA+2jREAAC81aaHyxBpNlkvANBHm4YIAIC32vRwGSLNJusFAPpo0xABAPBWmx4uQ6TZZL0AQB9tGiIAAN5q08NliDSbrBcA6OPFixffHw1Rja+++upbuQ0AAHMRal1J1gsA9PHll19+extqff7553+R2wAAMBeh1pVkvQBAL8+fP//lNtiq1VsVduV2AADMQah1JVkvANDLq1evvvPxxx//dhts1Xj27Nmva+VWNU1HHQI+AGBG1acIta4g6wUA+vniiy++l6GW8btRq9kq/Mv9BgDwLgi1riTrBQB6evny5XerKcpAx/jvUavZKvzL/QYA8NSEWleS9QIAvdUnIFbAVaceVpN05JHBVo3aN7nPAACeklDrSrJeAIBVVMBX4d421Jq6cQQADkGodSVZLwDAauqC8dtgq8Ku3AYA4KkIta4k6wUAWE19AqJTEAGAWQi1riTrBQBY0bNnz349msc6JTHvBwB4KkKtK8l6AQBWtL221tTNIwCwPKHWlWS9AAAratM8AgDLa9OXZIg0m6wXAGBFbZpHAGB5bfqSDJFmk/UCAKyoTfMIACyvTV+SIdJssl4AgBW1aR4BgOW16UsyRJpN1gsAsKI2zSMAsLw2fUmGSLPJegEAVtSmeQQAltemL8kQaTZZLwDAito0jwDA8tr0JRkizSbrBQBYUZvmEQBYXpu+JEOk2WS9AAAratM8AgDLa9OXZIg0m6wXAGBFbZpHAGB5bfqSDJFmk/UCAKyoTfMIACyvTV+SIdJssl4AgBW1aR4BgOW16UsyRJpN1gsAsKI2zSMAsLw2fUmGSLPJegEAVtSmeQQAltemL8kQaTZZLwDAito0jwDA8tr0JRkizSbrBQBYUZvmEQBYXpu+JEOk2WS9AAAratM8AgDLa9OXZIg0m6wXAGBFbZpHAGB5bfqSDJFmk/UCAKyoTfMIACyvTV+SIdJssl4AgBW1aR4BgOW16UsyRJpN1gsAsKI2zSMAsLw2fUmGSLPJegEAVtSmeQQAltemL8kQaTZZLwDAito0jwDA8tr0JRkizSbrBQBYUZvmEQBYXpu+JEOk2WS9AAAratM8AgDLa9OXZIg0m6wXAGBFbZpHAGB5bfqSDJFmk/UCAKyoTfMIACyvTV+SIdJssl4AgBW1aR4BgOW16UsyRJpN1gsAsKI2zSMAsLw2fUmGSLPJegEAVtSmeQQAltemL8kQaTZZLwDAito0jwDA8tr0JRkizSbrBQBYUZvmEQBYXpu+JEOk2WS9AAAratM8AgDLa9OXZIg0m6wXAGBFbZpHAGB5bfqSDJFmk/UCAKyoTfMIACyvTV+SIdJssl4AgBW1aR4BgOW16UsyRJpN1gsAsKI2zSMAsLw2fUmGSLPJegEAVtSmeQQAltemL8kQaTZZLwDAito0jwDA8tr0JRkizSbrBQBYUZvmEQBYXpu+JEOk2WS9AAAratM8AgDLa9OXZIg0m6wXAGBFbZpHAGB5bfqSDJFmk/UCAKyoTfMIACyvTV+SIdJssl4AgBW1aR4BgOW16UsyRJpN1gsAsKI2zSMAsLw2fUmGSLPJegEAVtSmeQQAltemL8kQaTZZLwDAito0jwDA8tr0JRkizSbrBQBYUZvmEQBYXpu+JEOk2WS9AAAratM8AgDLa9OXZIg0m6wXAGBFbZpHAGB5bfqSDJFmk/UCAKyoTfMIACyvTV+SIdJssl4AgBW1aR4BgOW16UsyRJpN1gsAsKI2zSMAsLw2fUmGSLPJegEAVtSmeQQAltemL8kQaTZZLwDAito0jwDA8tr0JRkizSbrBQBYUZvmEQBYXpu+JEOk2WS9AAAratM8AgDLa9OXZIg0m6wXAGBFbZpHAGB5bfqSDJFmk/UCAKyoTfMIACyvTV+SIdJssl4AgBW1aR4BgOW16UsyRJpN1gsAsKI2zSMAsLw2fUmGSLPJegEAVtSmeQQAltemL8kQaTZZLwDAito0jwDA8tr0JRkizSbrBQBYUZvmEQBYXpu+JEOk2WS9AAAratM8AgDLa9OXZIg0m6wXAGBFbZpHAGB5bfqSDJFmk/UCAKyoTfMIACyvTV+SIdJssl4AgBW1aR4BgOW16UsyRJpN1gsAsKI2zSMAsLw2fUmGSLPJegEAVtSmeQQAltemL8kQaTZZLwDAito0jwDA8tr0JRkizSbrBQBYUZvmEQBYXpu+JEOk2WS9AAAratM8AgDLa9OXZIg0m6wXAGBFbZpHAGB5bfqSDJFmk/UCAKyoTfMIACyvTV+SIdJssl4AgBW1aR4BgOW16UsyRJpN1gsAsKI2zSMAsLw2fUmGSLPJegEAVtSmeQQAltemL8kQaTZZLwDAito0jwDA8tr0JRkizSbrBQBYUZvmEQBYXpu+JEOk2WS9AAAratM8AgDLa9OXZIg0m6wXAGBFbZpHAGB5bfqSDJFmk/UCAKyoTfMIACyvTV+SIdJssl4AgBW1aR4BgOW16UsyRJpN1gsAsKI2zSMAsLw2fUmGSLPJegEAVtSmeQQAltemL8kQaTZZLwDAito0jwDA8tr0JRkizSbrBQBYUZvmEQBYXpu+JEOk2WS9AAAratM8AgDLa9OXZIg0m6wXAGBFbZpHAGB5bfqSDJFmk/UCAKyoTfMIACyvTV+SIdJssl4AgBW1aR4BgOW16UsyRJpN1gsAsKI2zSMAsLw2fUmGSLPJegEAVtSmeQQAltemL8kQaTZZLwDAito0jwDA8tr0JRkizSbrBQBYUZvmEQBYXpu+JEOk2WS9AAAratM8AgDLa9OXZIg0m6wXAGBFbZpHAGB5bfqSDJFmk/UCAKyoTfMIACyvTV+SIdJssl4AgBW1aR4BgOW16UsyRJpN1gsAsKI2zSMAsLw2fUmGSLPJegEAVtSmeQQAltemL8kQaTZZLwDAito0jwDA8tr0JRkizSbrBQBYUZvmEQBYXpu+JEOk2WS9AAAratM8AgDLa9OXZIg0m6wXAGBFbZpHAGB5bfqSDJFmk/UCAKyoTfMIACyvTV+SIdJssl4AgBW1aR4BgOW16UsyRJpN1gsAsKI2zSMAsLw2fUmGSLPJegEAVtSmeQQAltemL8kQaTZZLwDAito0jwDA8tr0JRkizSbrBQBYUZvmEQBYXpu+JEOk2WS9AAAratM8AgDLa9OXZIg0m6wXAGBFbZpHAGB5bfqSDJFmk/UCAKyoTfMIACyvTV+SIdJssl4AgBW1aR4BgOW16UsyRJpN1gsAsKI2zSMAsLw2fUmGSLPJegEAVtSmeQQAltemL8kQaTZZLwDAito0jwDA8tr0JRkizSbrBQBYUZvmkf/f3v2zyHKd+QMX8wL8ApZfusnGZn9vwGy+4HgDv4ANHCtTJBasTMlqA0VC4CtzUWSZBQkLYSy4IG4yYORAmAWLvQ4NBmOtvsM810ePuqf/TPWdUzWfDxw0U119+umumsupr06dBoDNW824pIdIs+n1AgBs0WoGjwDA5q1mXNJDpNn0egEAtmg1g0cAYPNWMy7pIdJser0AAFu0msEjALB5qxmX9BBpNr1eAIAtWs3gEQDYvNWMS3qINJteLwDAFq1m8AgAbN5qxiU9RJpNrxcAYItWM3gEADZvNeOSHiLNptcLALBFqxk8AgCbt5pxSQ+RZtPrBQDYotUMHgGAzVvNuKSHSLPp9QIAbNFqBo8AwOatZlzSQ6TZ9HoBALZoNYNHAGDzVjMu6SHSbHq9AABbtJrBIwCweasZl/QQaTa9XgCALVrN4BEA2LzVjEt6iDSbXi8AwBatZvAIAGzeasYlPUSaTa8XAGCLVjN4BAA2bzXjkh4izabXCwCwRasZPAIAm7eacUkPkWbT6wUA2KLVDB4BgM1bzbikh0iz6fUCAGzRagaPAMDmrWZc0kOk2fR6AQC2aDWDRwBg81YzLukh0mx6vQAAW7SawSMAsHmrGZf0EGk2vV4AgC1azeARANi81YxLeog0m14vAMAWrWbwCABs3mrGJT1Emk2vFwBgi1YzeAQANm8145IeIs2m1wsAsEWrGTwCAJu3mnFJD5Fm0+sFANii1QwegQdzfX39Dx988MG/V/voo4/+Ndv6fqX2f/bs2T+N2+u547bR2Pf4ev21x/3H9tlnn/3z2B8P75NPPvmXHJt+LkSOZR779ser2lbHftf5Vce5b4+hr4PS94cffvhvh86Xqv3Qfvvkef0c7e+h9umvsWvbY7GacUkPkWbT6wUA2KLVDB6BB5OL69dff/2b3t58880vxrAiYcG77777H+M+b7/99s9rn7feeuu/85y/9/x32Sf718V8f62xv3pOf6zaseEGl5fjnWPyzjvv/Gd/LMeyH6869j3QGc+JXcFo9dW3j3adn6kv4dW4X/qvusf9XhvCt2PkffVzs1rfp/9dZNtjPY9XMy7pIdJser0AAFu0msEj8GB60FAzXbItIUHtl2DhjTfe+J/bi/Gr/De/1wV7go3xgn5Ur5FAob/ePtlnDLmyf4KzbN8104dXK2FRjkUdk9daKFRBVM6Remzfsc95VufSXQFZ3z6qQOv2nL3KuZY+x9oqXM3r5PH8XgHXe++99/p3ezxOvaddIdUYfI3h2r79H4PVjEt6iDSbXi8AwBZ9+umnP1vF4BF4MPuChh4g5ecxZIoKG/LcuoCv/bOtZnFVSJZt+16v2/V6CSKyPf2N23n1Ej4lNKqgqM+wyrGrwKge23Psr9JPwqgES+M5VI4JtXK+3gZoL9U5WefLeB4Ou90EtIfOx32OCbXyOfRZiLv2fwyEWgvp9QIAbFEGjDV4TMDVHwfYEzTc3FpWs7Bqnz6bZQwNKnDKvgkl6mJ+3O/bH6/2vV6XfXqoVbPBdq3hxCt1leNQM/lynBMqjTvk2FXr59F47Ou8yUymCsh6aHlEqHVTTz9fqu8KkGo2V/Yf97uPY0Kt8W8j2/ft/xgItRbS6wUA2JoXL178oAaOad9eLPy07wNQF+W1uHYuwCtEqAvv8eJ8fG7dglYzXWqf8davBFw1q2d8vV1tvNDP73lOBSPV367b03i1asZT3VK3a4ZVHbc6R/bdelrHtn4fw9Rxnzxv3DbaFyzV9gq7auZYPZ79q/Vz+1j7XjvGMDfvsc7dffs/BkKthfR6AQC2Zrz1MO3rr7/+x74PwK6QKbNubmdl3cxoqRCjX4jX9ppZU/vk4r2CrArJKlio18usmTFUSBvDjuxToVYFWn3Rbx5G3eqX45VW58E4k2885jWTq4daNaMv50r1tWs23rGh1rgG3Li96ur91Pme1md5HevIUOvlz/Wed+3/GAi1FtLrBQDYioRXmZU1BlpPnz79vO8HEHVRXjO1+npG4z49NKgZOhVSJLzItgQe6S8BRZ5T28e+xgBrlzFoqOeYpfXw6hbBXW2cYTWGWuNtgOOxr/NnV+sBWbbV77vk8X4LZA9d++uXsdZTHRtqvTbcsrlv/8dAqLWQXi8AwDkqQMog7aFbZmY9efLkd2OYlfb+++//71dfffXDXjtAHBky3VyQ99Cgf/PdOKsq4UfChLrlqy7ij3y9762pVWGA2VoPq4Koup2wWj8+PSjKeVHnxhiCpo39pGXbeEviMaFW9f3asF5W1VSvV7dC9rXheq2nOCHUelnPvv0fg4xXhFoL6PUCAJwiIVFmP/UAacb2/Pnzn/T6AcqxIVOFGQkcEmhUWDXO3hr3ye/jrJ7qv16vZob19tptKJF9WtBwsy7Rbdix2ELfnCaff1/zKuq2ujofelBUAU+dC/sCpuhrdlWo1c+V8Xyp2WA1S7Ce02YXXtV5m8fznJpZeGqolfeb169a8zpDTTd6qFWfUZpQS6h1L71eAIBjJSTK7KceHs3WMlj8dgD9414/wKhCpvFifJ8EABVW7AgMXoYR4/aaQVO3Ndbr7WtVRwUP1U9UENK382qMXwzQH4tx5l4PtbJtnKlVs5Z2fZPluNZWfq/zbVcbz9tx/bY8djuz8HsB6BjKZp+8n1113GUM6Xrr+4zPc/uhUGsRvV4AgGMkJOrhUQ3MZmi5BTE15psPe+0AwN/tWj+OyxJqLaTXCwBwjAzAxjArIZIACQDgMKHWQnq9AACHJLwaA60sEN/3AQBgN6HWQnq9AACH9FsP882HfR8AAHYTai2k1wsAcMg4EHvy5Mnv+uMAAOwn1FpIrxcA4JDVDMQAACa0mrFUD5Fm0+sFADhkNQMxAHgFxlvytTlbP2YPbTVjqR4izabXCwBwyGoGYsCDe/78+U/yb8arbvlG1vz7pB3Xcit5DwHW0vo59xB6Tdp8rR+zh5Z/p6q2/A32x6fRQ6TZ9HoBAA5ZzUAMeHD9wlLTlm79nIM1WM1YqodIs+n1AgAcspqBGPDg6t+Jh2h99pa2vz179uynX3755Y/W1l68ePGDfs7BGuTvbhVjqR4izabXCwBwyGoGYgAAE1rNWKqHSLPp9QIAHLKagRgAwIRWM5bqIdJser0AAIesZiAGADCh1Yyleog0m14vAMAhqxmIAQBMaDVjqR4izabXCwBwyGoGYgAAE1rNWKqHSLPp9QIAHLKagRgAwIRWM5bqIdJser0AAIesZiAGADCh1Yyleog0m14vAMAhqxmIAXDQ9fX1P3zyySf/kv/2x86xdH+wRasZS/UQaTa9XgCAQ1YzEAM4Ugtgrj788MN/OzWU+eCDD/79nXfe+c8EOv2xSV299dZb//36669/Uy2/f/TRR//adzzS0v3BZq1mLNVDpNn0egEADlnNQAzgCAmjEsDk52fPnv3TG2+88T8VypwSyHz22Wf//Pbbb/88z3vzzTe/SDD27earvt8s3n333f9IrflvAry819Sd9//aGXUv3R9s2WrGUj1Emk2vFwDgkNUMxACOkCAmM6zy83vvvfd6gqlvf7zKz7X9FAl0EpQl0KmQJ4FX3++hJWzaNass7/+UMK8s3R9s2WrGUj1Emk2vFwDgkNUMxAAOyMysBE91q2GCqApgaubVd59xmvRRM5huZ25Nob/vUYK8U8O8pfv71lU+u30tr9efAGuymrFUD5Fm0+sFADhkNQMxgAMqjMkMox7MZFsCqf6cY6W/PD8zmBKW7ZrF9FASDNUtl11mmZ0a5l2qv33t1P5gNqsZS/UQaTa9XgCAQ1YzEAM4Qq37lJaFzbMtwVZ+TiDT9z/gZpH5uvVwiYXj09/SM5MqNEo41FtqPzU0Wrq/XfIZ5JjkOE14O+NVhXd5v6kzgeZSs/NmvH01ds3Mu4erhc/zrOM27VpuqxlL9RBpNr1eAIBDVjMQAzYlF7y3YcaiF6o1o+p2VtZN3wkjEkycctGe2hLsJHRJwHHKc++SYCz9LvlNgrXu17526uss3V9zs75ZhYT5ve/w0PIeKwTNe835k59T8xKB1L5ZcHfJ6+bz6n8zdUyGXY+SYzAGinVb7Rm3lt6cL/2W0vqby8+n/u2kptRXv6ev+sKHc+p7FVYzluoh0mx6vQAAh6xmIAZsSt0emIvV+oa9vs+CTg5OcjF+z/Bmr/FWxrRcwF/4/U8hs9wy8yltiXDoEnIccl7ummWUcOXYWWo95BnbGaHWVT6zBDoJisb6zgm1qobqL+8pP1fYeOp5X4HfvnZqfdm/PuecM9VHBcIznjurGUv1EGk2vV4AgENWMxADtugqF9B1oZ4L2VMvqLsxdEhfFRblQvjYQKLUjJ26iK7ZW/dZm6u5ef+pq95/3+EYFVLsa6f2u3R/37qqQOI24Dg5ZHyV9q2Zlvdw7LHvn1lvff+71C2wt79eVSCaYOucUCv7V391rCsky7E9tb/Xbmffjd+Yec7fWxlDrfQzzs46s76LW81YqodIs+n1AgAcspqBGLBpuaiuC+Px4vhUY2CQC+AKpE69yK6ZZAm1EgAkSKhQI9vvG74NboKtWrerP3ik7327YD6/FiSdYtH+LhCSXVSOR87B1DW21HrsjLoKRF/bEeCdepzrXBw/95r1lmNy7vGoc7ieX6Htqf2V1JTPLTXl53OP6xgmj4FefQ4L/u0tZjVjqR4izabXCwBwyGoGYsDm1W1597mwHgOD+4Raw2yWm4An/VZfS8wWqW9jTL95ndtFyL8XgJyjwoWlbvNboL/vhWRj23Wr30NLXbW2U451PoPbQOvoY5TjuyucPTXUivS14/y9mQF3zrmY5/X+8vu+IO4EL2fl9f6PVaHiGHxm+11B4UNbzViqh0iz6fUCAByymoEYsEkJCsZvGMzF+5nByY2lQq1ay6fPZqmA65wgIZb+NsVRPsuaUXRufaOl+1uzuk30lHNon3vMNPpemJNj9Otf//r/9+3H6LPOEi7+5je/+X/3+fsrOa/r9t8l+ov0tWR/S1rNWKqHSLPp9QIAHLKagRiwKbk4rRkdCXkSmvSL7HMsFWrFrhAjv9cMrnH7sRLaLfVeR+mzbplbou8l+6sgcF/rn/Es8r7rltj7Bq69r/74qca12JYIHB9bf0tbzViqh0iz6fUCAByymoEYsCkJB5aeqRQ9MLlveNIDneE2tLPc3mr3MhCrsC0zuM7tdwyNKogbW8KU/py7LN3fayu7/XAMUOrbAc8NUsa+Emjd5zbTHozl7+fckC0eW3+XtJqxVA+RZtPrBQA4ZDUDMWBrrlqYcfMNavvWITpWD0wuEZ4k4Dj34joBRz03/VRwcm7oFrn4T1/72qm3uy3dX95v3uPt884KdF6lOiYVMtb77vvdZfzSg/ycMOvc45vPr4Kx/Def4/itnKd6bP29CqsZS/UQaTa9XgCAQ1YzEAM2pS5c83PCg9zSl1azMu5zAZv+dsx6urqdJXNvqe/UkKPkPdd7y89VU4KP9Luj7tXLe0pYWSFPfl4qYLyECqRyPlbQeurxzrHM8yugHc/3U+W1019qqfNjPI9O9dj6exVWM5bqIdJser0AAIesZiAGbMp4kZ+fa52qhB35OUFCe8pR6oI4rWYU1bf35falvv+rNl6c5z1WjdmWmr+79/HyudX7q75qpkvf9xhL93frarwdL/89ddbXq1QzhCqgOmWmWX2TZ4Vju75t8AQ3n1vVkr7u8U2U8dj6u7jVjKV6iDSbXi8AwCGrGYgBmzKGWjVTqx7L9lNnxpSECLkYzgyoCk5q1sdrRwYSJcHE+Lz8ft8gJs9PjflvLZCf7VV33/9YNdMtP+ezrdu10u85s7+W7q+r9ZIWCMoubgyozqj1OwHNcBvmWcZaatbbfY7HY+vvUlYzluoh0mx6vQAAh6xmIAZsSs3+yUV+BU/ZXmHUuetq3fZzE0IlNDl3hkcunNNXXUwniEhfFU6c02fkIj3PTX8JtKqfc0K3UrWOs74qfDnn1rml++sqLKzPdqnbQl+BmwXv+8ZjVUBT5/o93YRlYzB6T4+tv0WtZizVQ6TZ9HoBAA5ZzUAM2JqX34iXi9S6UE2YdW6gFWNgkD7PmFlzI0FLApcEEalnCLKuEmzNdGFdAWH9nlCqAqlzFihfur9b35mxdN8Zbyt3Vnh5B/09sE8//fRnqxhL9RBpNr1eAIBDhFrAliwVaiVwqVDr21+vbvu5SsCT7TOFWjWzatcsotR96kyopfvLZ1iz3sbFv2ErMn6qsVQCrv74NHqINJteLwDAIUItYEsSnuxrJwZcVwlh+nOyaHX6ug27plG3cVYQleCobuU8J0Rasr9xphds0RhqZVzVH59GD5Fm0+sFADhEqAVsSd3SuKudEURd9VshM0Orb5vEzW2RY4h3z/WHlu4PNuvp06efC7UW0OsFADhEqAWwHQnuMqPqjABvp6X7gy2qcVTa9fX1j/vj0+gh0mx6vQAAhwi1AADO8+LFix+ModaXX375o77PNHqINJteLwDAIUItAIDzZGbWGGol5Or7TKOHSLPp9QIAHCLUAgA4zziOevLkye/641PpIdJser0AAIcItQAAzjN+8+HHH3/8X/3xqfQQaTa9XgCAQ4RaAACn6+tpPXv27Kd9n6n0EGk2vV4AgEOEWgAAp3v+/PlPxlDr66+//se+z1R6iDSbXi8AwCFCLQCA0/3qV7/6eY2hnj59+nl/fDo9RJpNrxcA4BChFgDAaTIra1W3HkYPkWbT6wUAOESoBQBwmnH8tIpbD6OHSLPp9QIAHCLUAgA4zZMnT35X46fchtgfn1IPkWbT6wUAOESoBQBwvOvr6x+Ps7Tye99nSj1Emk2vFwDgEKEWAMDxxgXiM2OrPz6tHiLNptcLAHCIUAsA4Dh9gfiMo/o+0+oh0mx6vQAAhwi1AACOs8oF4ksPkWbT6wUAOESoBQBwnFUuEF96iDSbXi8AwCFCLQCAw1a7QHzpIdJser0AAIcItQAADlvtAvGlh0iz6fUCABwi1AIAuNuLFy9+MM7SWtUC8aWHSLPp9QIAHCLUAgC427Nnz346hlqrWiC+9BBpNr1eAIBDhFoAAHdb9QLxpYdIs+n1AgAcItQCANjvyy+//NE4S2t1C8SXHiLNptcLAHCIUAsAYL+PP/74v2qstMoF4ksPkWbT6wUAOKSvEZGFUPs+AACP0SYWiC89RJpNrxcA4JAsdDoO1j799NOf9X0AAB6j/j//VrlAfOkh0mx6vQAAx3j69Onn44AtA7hVD9oAABawiQXiSw+RZtPrBQA4xldfffXD999//3/HYCstA7nM3MpU+4dugjYA4FXazALxpYdIs+n1AgAc6/nz5z/podaMLbPKEsL1+gEAlrSZBeJLD5Fm0+sFADhF/g9kvgGxB0mztcwqSwjX6wcAWMKmFogvPUSaTa8XAOAcGcgl4Mqthwm5Zmg92Epb/W0AAMCUNrVAfOkh0mx6vQAAW5GgLSHbOMBM2NX3AwC4r00tEF96iDSbXi8AwNb0/3OasKvvAwBwrs0tEF96iDSbXi8AwNZk+v8mB5oAwBTGBeKzjmd/fLV6iDSbXi8AwBaNtwTklsT+OPBqJGRecp2Zx9ZfucQ3umYW6yVqTZ+XmCGbmTF924yWPlZL9xeX6DMu0e8l+oz79NsXiN/UOKOHSLPp9QIAbNG4tpZ1teDVSwCRNWbq7zA/3yeUeGz9RS6cczt1hfSZDZJvV7tvEJWL+cwySX/1b+QS3xbbvx03r7HEZ5D3XJ9B/pvfLxGa3UeOSeqqzzR15tidW+fS/cUl+oxL9HuJPmOpfvsyB/f9m5xKD5Fm0+sFANiiDFprsCnUgldr37eRnvv3+Nj6iwRPdeG9q517W3X/Mo2x3ecWqqdPn37e+6t27iyWvmZRb/cNzJaSY9Frq5bP9NTAY+n+4hJ9xiX6vUSfsWS/42zwc//Gp9VDpNn0egEAtkioBQ8jYUy/YOztlNt+Hlt/ZVyvZ1dLiNSfc0hmo9wVlKWdM2PrrrCg2imBQRlnvu1qs3zb3F2BXlqOZX/OXZbuLy7RZ1yi30v0GUv128PWc/5mptZDpNn0egEAtkioBQ9jDGN+8YtffPOHP/zhpuXnUy8e47H1Fz18+uSTT7754x//+M0XX3zxss+0U8OyXHyPz7++vv7mT3/603dqPScsG2eqpa/U+vvf//47tebf5P68uyQEG5//29/+9qbW/Hfcfk5YtqQecOQY5f3nmNW2HMtjb29bur+4RJ9xiX4v0Wcs2e/4N3+f2Y3T6iHSbHq9AABbJNSCVy8XhOOFY4KNkgBlfOyYi8fH1l/p6/X89a9/venzb3/7273CsvGWqYRDJWHR+HqnhGU9fEpQUMbP4NSL/36bZN575LMYt597a+NSeqhZep05pv25uyzdX1yiz7hEv5foM5bqt//NP/T5dxEvP51J9XoBALZIqAUPY5xhlFCjjLOMTgk4Hlt/0WdU/fnPf77ps1+An3pBPc6o+uUvf/my1swsG/s9ZfZTv8gfg71xVlUCtf7cu+wL9v7yl798p9ZDIcSl7QvfcszG7cfeorZ0f3GJPuMS/V6iz1iq335envK3sho3n8zEer0AAFsk1IKHMf7tpeX2nvEWn7RTbkV7bP2VMSxLS0g2ztJKO/WCuodlCbb6LY3n/Hs5zoJJS5iVvsdth8KCLmHZ+Bnkvaff8TM49naxS+oz1VJf/0xPCfSW7i8u0Wdcot9L9BlL9bvpBeJLD5Fm0+sFANgioRY8jH7xuKudEsY8tv5KD8t6O/XWwzJelO9q53yj4KHF8s8Nn3pY1tu5n8HSDi1of2qouXR/cYk+4xL9XqLPuG+/fV2uU4Pa1egh0mx6vQAAWyTUgoeTv78+0ygt2865Xeyx9RcJwsbbBceWxdxPWfdqlAvxfcHWfUKi3N617zM49+I/n8G+b6zLZ3NOWHgJORZ31XlqoLd0f3GJPuMS/V6iz7hvv2PIeuotxavSQ6TZ9HoBALZIqAUPKxeICTNyEZmWnw9dNN7lsfVXEtxUYJSL6nPDrO76+vrHmbmSgCvB2xK1po/0lT7z7+65YVaX95z3nn6X/AyWlpk8qS/HKsfsvqHb0v3FJfqMS/R7iT7jnH5zbo8h2Knr2a1KD5Fm0+sFANgioRYAsIRHsUB86SHSbHq9AABbJNQCAJbwKBaILz1Emk2vFwBgi4RaAMB9PZoF4ksPkWbT6wUA2CKhFgBwH1lLa5yltekF4ksPkWbT6wUA2KK+/sUSiyADAI9HFoQfxxL5H2Z9n83pIdJser0AAFuURVzHgeimv6kIAFhU/59j+VbTvs8m9RBpNr1eAICtygB0HJBmgLrpbywCAO4la2hl2YJx/JDbDh/N+KGHSLPp9QIAbNVXX331wwxEx4FpWtbHyMyt3EagaZqmadrjbhkTJMjaNWao/ynWxxib1UOk2fR6AQC2LN9S1AenmqZpmqZph1r+J1hmbvWxxab1EGk2vV4AgK27vr7+cb+VQNM0TdM0bVfLjK3M4HqUXzLTQ6TZ9HoBAB6LDE4TcNVtBpqmaZqmaWm1LEGWLujjh0elh0iz6fUCAAAAgFALAAAAgPXpIdJser0AAAAAINQCAAAAYH16iDSbXi8AAAAACLUAAAAAWJ8eIs2m1wsAAAAAQi0AAAAA1qeHSLPp9QIAAACAUAsAAACA9ekh0mx6vQAAAAAg1AIAAABgfXqINJteLwAAAAAItQAAAABYnx4izabXCwAAAABCLQAAAADWp4dIs+n1AgAAAIBQCwAAAID16SHSbHq9AAAAACDUAgAAAGB9eog0m14vAAAAAAi1AAAAAFifHiLNptcLAAAAAEItAAAAANanh0iz6fUCAAAAgFALAAAAgPXpIdJser0AAAAAINQCAAAAYH16iDSbXi8AAAAACLUAAAAAWJ8eIs2m1wsAAAAAQi0AAAAA1qeHSLPp9QIAAACAUAsAAACA9ekh0mx6vQAAAAAg1AIAAABgfXqINJteLwAAAAAItQAAAABYnf8D5C/n+l/3+a8AAAAASUVORK5CYII=;" vertex="1" parent="1">
                    <mxGeometry width="1205" height="805" as="geometry"/>
                </mxCell>
                <mxCell id="3" value="220&amp;nbsp;Ω" style="pointerEvents=1;verticalLabelPosition=bottom;shadow=0;dashed=0;align=center;html=1;verticalAlign=top;shape=mxgraph.electrical.resistors.resistor_2;" vertex="1" parent="1">
                    <mxGeometry x="901" y="90" width="100" height="20" as="geometry"/>
                </mxCell>
                <mxCell id="5" value="220&amp;nbsp;Ω" style="pointerEvents=1;verticalLabelPosition=bottom;shadow=0;dashed=0;align=center;html=1;verticalAlign=top;shape=mxgraph.electrical.resistors.resistor_2;" vertex="1" parent="1">
                    <mxGeometry x="910" y="250" width="100" height="20" as="geometry"/>
                </mxCell>
                <mxCell id="9" value="green&lt;br&gt;" style="verticalLabelPosition=bottom;shadow=0;dashed=0;align=center;html=1;verticalAlign=top;shape=mxgraph.electrical.opto_electronics.led_2;pointerEvents=1;" vertex="1" parent="1">
                    <mxGeometry x="1000" y="140" width="100" height="70" as="geometry"/>
                </mxCell>
                <mxCell id="10" value="blue" style="verticalLabelPosition=bottom;shadow=0;dashed=0;align=center;html=1;verticalAlign=top;shape=mxgraph.electrical.opto_electronics.led_2;pointerEvents=1;" vertex="1" parent="1">
                    <mxGeometry x="1001" y="220" width="100" height="70" as="geometry"/>
                </mxCell>
                <mxCell id="11" value="red" style="verticalLabelPosition=bottom;shadow=0;dashed=0;align=center;html=1;verticalAlign=top;shape=mxgraph.electrical.opto_electronics.led_2;pointerEvents=1;" vertex="1" parent="1">
                    <mxGeometry x="1000" y="60" width="100" height="70" as="geometry"/>
                </mxCell>
                <mxCell id="14" value="220&amp;nbsp;Ω" style="pointerEvents=1;verticalLabelPosition=bottom;shadow=0;dashed=0;align=center;html=1;verticalAlign=top;shape=mxgraph.electrical.resistors.resistor_2;" vertex="1" parent="1">
                    <mxGeometry x="901" y="170" width="100" height="20" as="geometry"/>
                </mxCell>
                <mxCell id="15" value="" style="endArrow=none;html=1;exitX=0;exitY=0.5;exitDx=0;exitDy=0;exitPerimeter=0;" edge="1" parent="1" source="5">
                    <mxGeometry width="50" height="50" relative="1" as="geometry">
                        <mxPoint x="930" y="390" as="sourcePoint"/>
                        <mxPoint x="890" y="360" as="targetPoint"/>
                        <Array as="points">
                            <mxPoint x="890" y="350"/>
                        </Array>
                    </mxGeometry>
                </mxCell>
                <mxCell id="16" value="" style="endArrow=none;html=1;exitX=0;exitY=0.5;exitDx=0;exitDy=0;exitPerimeter=0;" edge="1" parent="1" source="14">
                    <mxGeometry width="50" height="50" relative="1" as="geometry">
                        <mxPoint x="920" y="270" as="sourcePoint"/>
                        <mxPoint x="870" y="350" as="targetPoint"/>
                        <Array as="points">
                            <mxPoint x="870" y="350"/>
                        </Array>
                    </mxGeometry>
                </mxCell>
                <mxCell id="17" value="" style="endArrow=none;html=1;exitX=0;exitY=0.5;exitDx=0;exitDy=0;exitPerimeter=0;" edge="1" parent="1" source="3">
                    <mxGeometry width="50" height="50" relative="1" as="geometry">
                        <mxPoint x="920" y="200" as="sourcePoint"/>
                        <mxPoint x="850" y="350" as="targetPoint"/>
                        <Array as="points">
                            <mxPoint x="850" y="350"/>
                        </Array>
                    </mxGeometry>
                </mxCell>
                <mxCell id="20" value="" style="endArrow=none;html=1;entryX=1;entryY=0.57;entryDx=0;entryDy=0;entryPerimeter=0;" edge="1" parent="1">
                    <mxGeometry width="50" height="50" relative="1" as="geometry">
                        <mxPoint x="940" y="750" as="sourcePoint"/>
                        <mxPoint x="1100" y="259.9" as="targetPoint"/>
                    </mxGeometry>
                </mxCell>
                <mxCell id="21" value="" style="endArrow=none;html=1;entryX=1;entryY=0.57;entryDx=0;entryDy=0;entryPerimeter=0;" edge="1" parent="1" target="9">
                    <mxGeometry width="50" height="50" relative="1" as="geometry">
                        <mxPoint x="940" y="750" as="sourcePoint"/>
                        <mxPoint x="1110" y="269.9" as="targetPoint"/>
                        <Array as="points">
                            <mxPoint x="1090" y="290"/>
                            <mxPoint x="1100" y="270"/>
                        </Array>
                    </mxGeometry>
                </mxCell>
                <mxCell id="23" value="" style="endArrow=none;html=1;entryX=1;entryY=0.57;entryDx=0;entryDy=0;entryPerimeter=0;" edge="1" parent="1" target="11">
                    <mxGeometry width="50" height="50" relative="1" as="geometry">
                        <mxPoint x="940" y="760.1" as="sourcePoint"/>
                        <mxPoint x="1100" y="199.99999999999997" as="targetPoint"/>
                        <Array as="points">
                            <mxPoint x="1090" y="300.1"/>
                            <mxPoint x="1100" y="280.1"/>
                        </Array>
                    </mxGeometry>
                </mxCell>
            </root>
        </mxGraphModel>
    </diagram>
</mxfile>